{
 "cells": [
  {
   "cell_type": "code",
   "execution_count": null,
   "metadata": {},
   "outputs": [],
   "source": [
    "# Requirements\n",
    "# !apt-get install ffmpeg"
   ]
  },
  {
   "cell_type": "code",
   "execution_count": 1,
   "metadata": {},
   "outputs": [],
   "source": [
    "# import librosa\n",
    "# librosa.load(\"nlp_keywords_29Oct2020/nlp_keywords/abalimi/6fbfcce2cf21419e97290f9e12934f65_005b575002574d6780e273c7a15ba1e3.wav\")"
   ]
  },
  {
   "cell_type": "code",
   "execution_count": 2,
   "metadata": {},
   "outputs": [],
   "source": [
    "import pandas as pd\n",
    "import os"
   ]
  },
  {
   "cell_type": "code",
   "execution_count": 3,
   "metadata": {},
   "outputs": [],
   "source": [
    "# Create new dirs for converted audios\n",
    "os.mkdir(\"AdditionalUtterancesConverted/\")\n",
    "os.mkdir(\"AdditionalUtterancesConverted/latest_keywords/\")"
   ]
  },
  {
   "cell_type": "code",
   "execution_count": 8,
   "metadata": {},
   "outputs": [],
   "source": [
    "# Audio input to be converted path\n",
    "base_path = \"AdditionalUtterances/latest_keywords/\"\n",
    "additional_labels = os.listdir(base_path)"
   ]
  },
  {
   "cell_type": "code",
   "execution_count": 9,
   "metadata": {},
   "outputs": [],
   "source": [
    "for label in additional_labels:\n",
    "    os.mkdir(f\"AdditionalUtterancesConverted/latest_keywords/{label}\")"
   ]
  },
  {
   "cell_type": "code",
   "execution_count": 14,
   "metadata": {},
   "outputs": [
    {
     "data": {
      "text/plain": [
       "'AdditionalUtterancesConverted/latest_keywords/la bel/as'"
      ]
     },
     "execution_count": 14,
     "metadata": {},
     "output_type": "execute_result"
    }
   ],
   "source": [
    "os.path.join(\"AdditionalUtterancesConverted/latest_keywords/\", \"la bel\" + \"/\" + \"as\")"
   ]
  },
  {
   "cell_type": "code",
   "execution_count": 4,
   "metadata": {},
   "outputs": [],
   "source": [
    "%%time\n",
    "for label in additional_labels:\n",
    "# for label in [\"enva endiirwa\", \"nnasale beedi\"]:   \n",
    "    samples_in_label = os.listdir(os.path.join(base_path, label))\n",
    "    \n",
    "    for sample in samples_in_label:\n",
    "        file_path = os.path.join(base_path, label + \"/\" + sample)\n",
    "        dest_path = os.path.join(\"AdditionalUtterancesConverted/latest_keywords/\", label + \"/\" + sample)\n",
    "#         dest_path = \"./saas.wav\"\n",
    "        \n",
    "#         print(dest_path)\n",
    "#         break\n",
    "#         Convert\n",
    "        !ffmpeg -i \"$file_path\" -ac 1 -ar 22050 \"$dest_path\" -loglevel quiet\n",
    "#         break\n",
    "#     break"
   ]
  },
  {
   "cell_type": "code",
   "execution_count": 20,
   "metadata": {},
   "outputs": [
    {
     "data": {
      "text/plain": [
       "'AdditionalUtterances/latest_keywords/nnasale beedi/eb702740d41f4f389192ec5c6a3ae95f_e0b303d2528341178fe92c1dd69e1b1d.wav'"
      ]
     },
     "execution_count": 20,
     "metadata": {},
     "output_type": "execute_result"
    }
   ],
   "source": [
    "file_path"
   ]
  },
  {
   "cell_type": "code",
   "execution_count": null,
   "metadata": {},
   "outputs": [],
   "source": [
    "# ffmpeg couldn't work with dir names containing whitespace"
   ]
  },
  {
   "cell_type": "code",
   "execution_count": 32,
   "metadata": {},
   "outputs": [
    {
     "name": "stderr",
     "output_type": "stream",
     "text": [
      "ffmpeg version 4.2 Copyright (c) 2000-2019 the FFmpeg developers\n",
      "  built with gcc 9.1.1 (GCC) 20190807\n",
      "  configuration: --enable-gpl --enable-version3 --enable-sdl2 --enable-fontconfig --enable-gnutls --enable-iconv --enable-libass --enable-libdav1d --enable-libbluray --enable-libfreetype --enable-libmp3lame --enable-libopencore-amrnb --enable-libopencore-amrwb --enable-libopenjpeg --enable-libopus --enable-libshine --enable-libsnappy --enable-libsoxr --enable-libtheora --enable-libtwolame --enable-libvpx --enable-libwavpack --enable-libwebp --enable-libx264 --enable-libx265 --enable-libxml2 --enable-libzimg --enable-lzma --enable-zlib --enable-gmp --enable-libvidstab --enable-libvorbis --enable-libvo-amrwbenc --enable-libmysofa --enable-libspeex --enable-libxvid --enable-libaom --enable-libmfx --enable-amf --enable-ffnvcodec --enable-cuvid --enable-d3d11va --enable-nvenc --enable-nvdec --enable-dxva2 --enable-avisynth --enable-libopenmpt\n",
      "  libavutil      56. 31.100 / 56. 31.100\n",
      "  libavcodec     58. 54.100 / 58. 54.100\n",
      "  libavformat    58. 29.100 / 58. 29.100\n",
      "  libavdevice    58.  8.100 / 58.  8.100\n",
      "  libavfilter     7. 57.100 /  7. 57.100\n",
      "  libswscale      5.  5.100 /  5.  5.100\n",
      "  libswresample   3.  5.100 /  3.  5.100\n",
      "  libpostproc    55.  5.100 / 55.  5.100\n",
      "Input #0, ogg, from 'tem\\1b5a69c4b88b41eb9577a656e11bb7dd_22ca305c5cba474a88f26a4d7264d46e.wav':\n",
      "  Duration: 00:00:02.51, start: 0.000000, bitrate: 131 kb/s\n",
      "    Stream #0:0: Audio: opus, 48000 Hz, stereo, fltp\n",
      "    Metadata:\n",
      "      ENCODER         : Mozilla78.0.2\n",
      "Stream mapping:\n",
      "  Stream #0:0 -> #0:0 (opus (native) -> pcm_s16le (native))\n",
      "Press [q] to stop, [?] for help\n",
      "Output #0, wav, to 'tem2/1b5a69c4b88b41eb9577a656e11bb7dd_22ca305c5cba474a88f26a4d7264d46e.wav.wav':\n",
      "  Metadata:\n",
      "    ISFT            : Lavf58.29.100\n",
      "    Stream #0:0: Audio: pcm_s16le ([1][0][0][0] / 0x0001), 22050 Hz, mono, s16, 352 kb/s\n",
      "    Metadata:\n",
      "      encoder         : Lavc58.54.100 pcm_s16le\n",
      "size=     108kB time=00:00:02.50 bitrate= 353.0kbits/s speed= 193x    \n",
      "video:0kB audio:108kB subtitle:0kB other streams:0kB global headers:0kB muxing overhead: 0.070595%\n",
      "ffmpeg version 4.2 Copyright (c) 2000-2019 the FFmpeg developers\n",
      "  built with gcc 9.1.1 (GCC) 20190807\n",
      "  configuration: --enable-gpl --enable-version3 --enable-sdl2 --enable-fontconfig --enable-gnutls --enable-iconv --enable-libass --enable-libdav1d --enable-libbluray --enable-libfreetype --enable-libmp3lame --enable-libopencore-amrnb --enable-libopencore-amrwb --enable-libopenjpeg --enable-libopus --enable-libshine --enable-libsnappy --enable-libsoxr --enable-libtheora --enable-libtwolame --enable-libvpx --enable-libwavpack --enable-libwebp --enable-libx264 --enable-libx265 --enable-libxml2 --enable-libzimg --enable-lzma --enable-zlib --enable-gmp --enable-libvidstab --enable-libvorbis --enable-libvo-amrwbenc --enable-libmysofa --enable-libspeex --enable-libxvid --enable-libaom --enable-libmfx --enable-amf --enable-ffnvcodec --enable-cuvid --enable-d3d11va --enable-nvenc --enable-nvdec --enable-dxva2 --enable-avisynth --enable-libopenmpt\n",
      "  libavutil      56. 31.100 / 56. 31.100\n",
      "  libavcodec     58. 54.100 / 58. 54.100\n",
      "  libavformat    58. 29.100 / 58. 29.100\n",
      "  libavdevice    58.  8.100 / 58.  8.100\n",
      "  libavfilter     7. 57.100 /  7. 57.100\n",
      "  libswscale      5.  5.100 /  5.  5.100\n",
      "  libswresample   3.  5.100 /  3.  5.100\n",
      "  libpostproc    55.  5.100 / 55.  5.100\n",
      "Input #0, ogg, from 'tem\\1b5a69c4b88b41eb9577a656e11bb7dd_97a680093c93407d953f5da16b348b91.wav':\n",
      "  Duration: 00:00:02.50, start: 0.000000, bitrate: 132 kb/s\n",
      "    Stream #0:0: Audio: opus, 48000 Hz, stereo, fltp\n",
      "    Metadata:\n",
      "      ENCODER         : Mozilla78.0.2\n",
      "Stream mapping:\n",
      "  Stream #0:0 -> #0:0 (opus (native) -> pcm_s16le (native))\n",
      "Press [q] to stop, [?] for help\n",
      "Output #0, wav, to 'tem2/1b5a69c4b88b41eb9577a656e11bb7dd_97a680093c93407d953f5da16b348b91.wav.wav':\n",
      "  Metadata:\n",
      "    ISFT            : Lavf58.29.100\n",
      "    Stream #0:0: Audio: pcm_s16le ([1][0][0][0] / 0x0001), 22050 Hz, mono, s16, 352 kb/s\n",
      "    Metadata:\n",
      "      encoder         : Lavc58.54.100 pcm_s16le\n",
      "size=     107kB time=00:00:02.49 bitrate= 353.1kbits/s speed= 208x    \n",
      "video:0kB audio:107kB subtitle:0kB other streams:0kB global headers:0kB muxing overhead: 0.070923%\n",
      "ffmpeg version 4.2 Copyright (c) 2000-2019 the FFmpeg developers\n",
      "  built with gcc 9.1.1 (GCC) 20190807\n",
      "  configuration: --enable-gpl --enable-version3 --enable-sdl2 --enable-fontconfig --enable-gnutls --enable-iconv --enable-libass --enable-libdav1d --enable-libbluray --enable-libfreetype --enable-libmp3lame --enable-libopencore-amrnb --enable-libopencore-amrwb --enable-libopenjpeg --enable-libopus --enable-libshine --enable-libsnappy --enable-libsoxr --enable-libtheora --enable-libtwolame --enable-libvpx --enable-libwavpack --enable-libwebp --enable-libx264 --enable-libx265 --enable-libxml2 --enable-libzimg --enable-lzma --enable-zlib --enable-gmp --enable-libvidstab --enable-libvorbis --enable-libvo-amrwbenc --enable-libmysofa --enable-libspeex --enable-libxvid --enable-libaom --enable-libmfx --enable-amf --enable-ffnvcodec --enable-cuvid --enable-d3d11va --enable-nvenc --enable-nvdec --enable-dxva2 --enable-avisynth --enable-libopenmpt\n",
      "  libavutil      56. 31.100 / 56. 31.100\n",
      "  libavcodec     58. 54.100 / 58. 54.100\n",
      "  libavformat    58. 29.100 / 58. 29.100\n",
      "  libavdevice    58.  8.100 / 58.  8.100\n",
      "  libavfilter     7. 57.100 /  7. 57.100\n",
      "  libswscale      5.  5.100 /  5.  5.100\n",
      "  libswresample   3.  5.100 /  3.  5.100\n",
      "  libpostproc    55.  5.100 / 55.  5.100\n",
      "Input #0, ogg, from 'tem\\1b5a69c4b88b41eb9577a656e11bb7dd_ad362144f2564d26b143cca6db30b6a9.wav':\n",
      "  Duration: 00:00:02.51, start: 0.000000, bitrate: 131 kb/s\n",
      "    Stream #0:0: Audio: opus, 48000 Hz, stereo, fltp\n",
      "    Metadata:\n",
      "      ENCODER         : Mozilla78.0.2\n",
      "Stream mapping:\n",
      "  Stream #0:0 -> #0:0 (opus (native) -> pcm_s16le (native))\n",
      "Press [q] to stop, [?] for help\n",
      "Output #0, wav, to 'tem2/1b5a69c4b88b41eb9577a656e11bb7dd_ad362144f2564d26b143cca6db30b6a9.wav.wav':\n",
      "  Metadata:\n",
      "    ISFT            : Lavf58.29.100\n",
      "    Stream #0:0: Audio: pcm_s16le ([1][0][0][0] / 0x0001), 22050 Hz, mono, s16, 352 kb/s\n",
      "    Metadata:\n",
      "      encoder         : Lavc58.54.100 pcm_s16le\n",
      "size=     108kB time=00:00:02.50 bitrate= 353.0kbits/s speed= 209x    \n",
      "video:0kB audio:108kB subtitle:0kB other streams:0kB global headers:0kB muxing overhead: 0.070595%\n",
      "ffmpeg version 4.2 Copyright (c) 2000-2019 the FFmpeg developers\n",
      "  built with gcc 9.1.1 (GCC) 20190807\n",
      "  configuration: --enable-gpl --enable-version3 --enable-sdl2 --enable-fontconfig --enable-gnutls --enable-iconv --enable-libass --enable-libdav1d --enable-libbluray --enable-libfreetype --enable-libmp3lame --enable-libopencore-amrnb --enable-libopencore-amrwb --enable-libopenjpeg --enable-libopus --enable-libshine --enable-libsnappy --enable-libsoxr --enable-libtheora --enable-libtwolame --enable-libvpx --enable-libwavpack --enable-libwebp --enable-libx264 --enable-libx265 --enable-libxml2 --enable-libzimg --enable-lzma --enable-zlib --enable-gmp --enable-libvidstab --enable-libvorbis --enable-libvo-amrwbenc --enable-libmysofa --enable-libspeex --enable-libxvid --enable-libaom --enable-libmfx --enable-amf --enable-ffnvcodec --enable-cuvid --enable-d3d11va --enable-nvenc --enable-nvdec --enable-dxva2 --enable-avisynth --enable-libopenmpt\n",
      "  libavutil      56. 31.100 / 56. 31.100\n",
      "  libavcodec     58. 54.100 / 58. 54.100\n",
      "  libavformat    58. 29.100 / 58. 29.100\n",
      "  libavdevice    58.  8.100 / 58.  8.100\n",
      "  libavfilter     7. 57.100 /  7. 57.100\n",
      "  libswscale      5.  5.100 /  5.  5.100\n",
      "  libswresample   3.  5.100 /  3.  5.100\n",
      "  libpostproc    55.  5.100 / 55.  5.100\n",
      "Input #0, ogg, from 'tem\\1b5a69c4b88b41eb9577a656e11bb7dd_e1f476dfed434740a54b19d43dc66b1d.wav':\n",
      "  Duration: 00:00:02.51, start: 0.000000, bitrate: 131 kb/s\n",
      "    Stream #0:0: Audio: opus, 48000 Hz, stereo, fltp\n",
      "    Metadata:\n",
      "      ENCODER         : Mozilla78.0.2\n",
      "Stream mapping:\n",
      "  Stream #0:0 -> #0:0 (opus (native) -> pcm_s16le (native))\n",
      "Press [q] to stop, [?] for help\n",
      "Output #0, wav, to 'tem2/1b5a69c4b88b41eb9577a656e11bb7dd_e1f476dfed434740a54b19d43dc66b1d.wav.wav':\n",
      "  Metadata:\n",
      "    ISFT            : Lavf58.29.100\n",
      "    Stream #0:0: Audio: pcm_s16le ([1][0][0][0] / 0x0001), 22050 Hz, mono, s16, 352 kb/s\n",
      "    Metadata:\n",
      "      encoder         : Lavc58.54.100 pcm_s16le\n",
      "size=     108kB time=00:00:02.50 bitrate= 353.0kbits/s speed= 180x    \n",
      "video:0kB audio:108kB subtitle:0kB other streams:0kB global headers:0kB muxing overhead: 0.070676%\n"
     ]
    },
    {
     "name": "stderr",
     "output_type": "stream",
     "text": [
      "ffmpeg version 4.2 Copyright (c) 2000-2019 the FFmpeg developers\n",
      "  built with gcc 9.1.1 (GCC) 20190807\n",
      "  configuration: --enable-gpl --enable-version3 --enable-sdl2 --enable-fontconfig --enable-gnutls --enable-iconv --enable-libass --enable-libdav1d --enable-libbluray --enable-libfreetype --enable-libmp3lame --enable-libopencore-amrnb --enable-libopencore-amrwb --enable-libopenjpeg --enable-libopus --enable-libshine --enable-libsnappy --enable-libsoxr --enable-libtheora --enable-libtwolame --enable-libvpx --enable-libwavpack --enable-libwebp --enable-libx264 --enable-libx265 --enable-libxml2 --enable-libzimg --enable-lzma --enable-zlib --enable-gmp --enable-libvidstab --enable-libvorbis --enable-libvo-amrwbenc --enable-libmysofa --enable-libspeex --enable-libxvid --enable-libaom --enable-libmfx --enable-amf --enable-ffnvcodec --enable-cuvid --enable-d3d11va --enable-nvenc --enable-nvdec --enable-dxva2 --enable-avisynth --enable-libopenmpt\n",
      "  libavutil      56. 31.100 / 56. 31.100\n",
      "  libavcodec     58. 54.100 / 58. 54.100\n",
      "  libavformat    58. 29.100 / 58. 29.100\n",
      "  libavdevice    58.  8.100 / 58.  8.100\n",
      "  libavfilter     7. 57.100 /  7. 57.100\n",
      "  libswscale      5.  5.100 /  5.  5.100\n",
      "  libswresample   3.  5.100 /  3.  5.100\n",
      "  libpostproc    55.  5.100 / 55.  5.100\n",
      "Input #0, ogg, from 'tem\\1b5a69c4b88b41eb9577a656e11bb7dd_ffe5784c515046d399b34d1216e0b44a.wav':\n",
      "  Duration: 00:00:02.51, start: 0.000000, bitrate: 131 kb/s\n",
      "    Stream #0:0: Audio: opus, 48000 Hz, stereo, fltp\n",
      "    Metadata:\n",
      "      ENCODER         : Mozilla78.0.2\n",
      "Stream mapping:\n",
      "  Stream #0:0 -> #0:0 (opus (native) -> pcm_s16le (native))\n",
      "Press [q] to stop, [?] for help\n",
      "Output #0, wav, to 'tem2/1b5a69c4b88b41eb9577a656e11bb7dd_ffe5784c515046d399b34d1216e0b44a.wav.wav':\n",
      "  Metadata:\n",
      "    ISFT            : Lavf58.29.100\n",
      "    Stream #0:0: Audio: pcm_s16le ([1][0][0][0] / 0x0001), 22050 Hz, mono, s16, 352 kb/s\n",
      "    Metadata:\n",
      "      encoder         : Lavc58.54.100 pcm_s16le\n",
      "size=     108kB time=00:00:02.49 bitrate= 353.0kbits/s speed= 208x    \n",
      "video:0kB audio:108kB subtitle:0kB other streams:0kB global headers:0kB muxing overhead: 0.070759%\n",
      "ffmpeg version 4.2 Copyright (c) 2000-2019 the FFmpeg developers\n",
      "  built with gcc 9.1.1 (GCC) 20190807\n",
      "  configuration: --enable-gpl --enable-version3 --enable-sdl2 --enable-fontconfig --enable-gnutls --enable-iconv --enable-libass --enable-libdav1d --enable-libbluray --enable-libfreetype --enable-libmp3lame --enable-libopencore-amrnb --enable-libopencore-amrwb --enable-libopenjpeg --enable-libopus --enable-libshine --enable-libsnappy --enable-libsoxr --enable-libtheora --enable-libtwolame --enable-libvpx --enable-libwavpack --enable-libwebp --enable-libx264 --enable-libx265 --enable-libxml2 --enable-libzimg --enable-lzma --enable-zlib --enable-gmp --enable-libvidstab --enable-libvorbis --enable-libvo-amrwbenc --enable-libmysofa --enable-libspeex --enable-libxvid --enable-libaom --enable-libmfx --enable-amf --enable-ffnvcodec --enable-cuvid --enable-d3d11va --enable-nvenc --enable-nvdec --enable-dxva2 --enable-avisynth --enable-libopenmpt\n",
      "  libavutil      56. 31.100 / 56. 31.100\n",
      "  libavcodec     58. 54.100 / 58. 54.100\n",
      "  libavformat    58. 29.100 / 58. 29.100\n",
      "  libavdevice    58.  8.100 / 58.  8.100\n",
      "  libavfilter     7. 57.100 /  7. 57.100\n",
      "  libswscale      5.  5.100 /  5.  5.100\n",
      "  libswresample   3.  5.100 /  3.  5.100\n",
      "  libpostproc    55.  5.100 / 55.  5.100\n",
      "Input #0, matroska,webm, from 'tem\\5aa4893526794a73a3ed0a7ebba2a7bf_7f584eec3a1c4094ac32099cd0a2f696.wav':\n",
      "  Metadata:\n",
      "    encoder         : Chrome\n",
      "  Duration: N/A, start: 0.000000, bitrate: N/A\n",
      "    Stream #0:0(eng): Audio: opus, 48000 Hz, mono, fltp (default)\n",
      "Stream mapping:\n",
      "  Stream #0:0 -> #0:0 (opus (native) -> pcm_s16le (native))\n",
      "Press [q] to stop, [?] for help\n",
      "Output #0, wav, to 'tem2/5aa4893526794a73a3ed0a7ebba2a7bf_7f584eec3a1c4094ac32099cd0a2f696.wav.wav':\n",
      "  Metadata:\n",
      "    ISFT            : Lavf58.29.100\n",
      "    Stream #0:0(eng): Audio: pcm_s16le ([1][0][0][0] / 0x0001), 22050 Hz, mono, s16, 352 kb/s (default)\n",
      "    Metadata:\n",
      "      encoder         : Lavc58.54.100 pcm_s16le\n",
      "size=     106kB time=00:00:02.46 bitrate= 353.1kbits/s speed= 248x    \n",
      "video:0kB audio:106kB subtitle:0kB other streams:0kB global headers:0kB muxing overhead: 0.071899%\n",
      "ffmpeg version 4.2 Copyright (c) 2000-2019 the FFmpeg developers\n",
      "  built with gcc 9.1.1 (GCC) 20190807\n",
      "  configuration: --enable-gpl --enable-version3 --enable-sdl2 --enable-fontconfig --enable-gnutls --enable-iconv --enable-libass --enable-libdav1d --enable-libbluray --enable-libfreetype --enable-libmp3lame --enable-libopencore-amrnb --enable-libopencore-amrwb --enable-libopenjpeg --enable-libopus --enable-libshine --enable-libsnappy --enable-libsoxr --enable-libtheora --enable-libtwolame --enable-libvpx --enable-libwavpack --enable-libwebp --enable-libx264 --enable-libx265 --enable-libxml2 --enable-libzimg --enable-lzma --enable-zlib --enable-gmp --enable-libvidstab --enable-libvorbis --enable-libvo-amrwbenc --enable-libmysofa --enable-libspeex --enable-libxvid --enable-libaom --enable-libmfx --enable-amf --enable-ffnvcodec --enable-cuvid --enable-d3d11va --enable-nvenc --enable-nvdec --enable-dxva2 --enable-avisynth --enable-libopenmpt\n",
      "  libavutil      56. 31.100 / 56. 31.100\n",
      "  libavcodec     58. 54.100 / 58. 54.100\n",
      "  libavformat    58. 29.100 / 58. 29.100\n",
      "  libavdevice    58.  8.100 / 58.  8.100\n",
      "  libavfilter     7. 57.100 /  7. 57.100\n",
      "  libswscale      5.  5.100 /  5.  5.100\n",
      "  libswresample   3.  5.100 /  3.  5.100\n",
      "  libpostproc    55.  5.100 / 55.  5.100\n",
      "Input #0, matroska,webm, from 'tem\\5aa4893526794a73a3ed0a7ebba2a7bf_9be7d0a17f48424ca2288a1fba5886af.wav':\n",
      "  Metadata:\n",
      "    encoder         : Chrome\n",
      "  Duration: N/A, start: 0.000000, bitrate: N/A\n",
      "    Stream #0:0(eng): Audio: opus, 48000 Hz, mono, fltp (default)\n",
      "Stream mapping:\n",
      "  Stream #0:0 -> #0:0 (opus (native) -> pcm_s16le (native))\n",
      "Press [q] to stop, [?] for help\n",
      "Output #0, wav, to 'tem2/5aa4893526794a73a3ed0a7ebba2a7bf_9be7d0a17f48424ca2288a1fba5886af.wav.wav':\n",
      "  Metadata:\n",
      "    ISFT            : Lavf58.29.100\n",
      "    Stream #0:0(eng): Audio: pcm_s16le ([1][0][0][0] / 0x0001), 22050 Hz, mono, s16, 352 kb/s (default)\n",
      "    Metadata:\n",
      "      encoder         : Lavc58.54.100 pcm_s16le\n",
      "size=     106kB time=00:00:02.45 bitrate= 353.1kbits/s speed= 274x    \n",
      "video:0kB audio:106kB subtitle:0kB other streams:0kB global headers:0kB muxing overhead: 0.071899%\n",
      "ffmpeg version 4.2 Copyright (c) 2000-2019 the FFmpeg developers\n",
      "  built with gcc 9.1.1 (GCC) 20190807\n",
      "  configuration: --enable-gpl --enable-version3 --enable-sdl2 --enable-fontconfig --enable-gnutls --enable-iconv --enable-libass --enable-libdav1d --enable-libbluray --enable-libfreetype --enable-libmp3lame --enable-libopencore-amrnb --enable-libopencore-amrwb --enable-libopenjpeg --enable-libopus --enable-libshine --enable-libsnappy --enable-libsoxr --enable-libtheora --enable-libtwolame --enable-libvpx --enable-libwavpack --enable-libwebp --enable-libx264 --enable-libx265 --enable-libxml2 --enable-libzimg --enable-lzma --enable-zlib --enable-gmp --enable-libvidstab --enable-libvorbis --enable-libvo-amrwbenc --enable-libmysofa --enable-libspeex --enable-libxvid --enable-libaom --enable-libmfx --enable-amf --enable-ffnvcodec --enable-cuvid --enable-d3d11va --enable-nvenc --enable-nvdec --enable-dxva2 --enable-avisynth --enable-libopenmpt\n",
      "  libavutil      56. 31.100 / 56. 31.100\n",
      "  libavcodec     58. 54.100 / 58. 54.100\n",
      "  libavformat    58. 29.100 / 58. 29.100\n",
      "  libavdevice    58.  8.100 / 58.  8.100\n",
      "  libavfilter     7. 57.100 /  7. 57.100\n",
      "  libswscale      5.  5.100 /  5.  5.100\n",
      "  libswresample   3.  5.100 /  3.  5.100\n",
      "  libpostproc    55.  5.100 / 55.  5.100\n",
      "Input #0, matroska,webm, from 'tem\\5aa4893526794a73a3ed0a7ebba2a7bf_df36eea3cdbb467eb3f2b8b3fc7a5caa.wav':\n",
      "  Metadata:\n",
      "    encoder         : Chrome\n",
      "  Duration: N/A, start: 0.000000, bitrate: N/A\n",
      "    Stream #0:0(eng): Audio: opus, 48000 Hz, mono, fltp (default)\n",
      "Stream mapping:\n",
      "  Stream #0:0 -> #0:0 (opus (native) -> pcm_s16le (native))\n",
      "Press [q] to stop, [?] for help\n",
      "Output #0, wav, to 'tem2/5aa4893526794a73a3ed0a7ebba2a7bf_df36eea3cdbb467eb3f2b8b3fc7a5caa.wav.wav':\n",
      "  Metadata:\n",
      "    ISFT            : Lavf58.29.100\n",
      "    Stream #0:0(eng): Audio: pcm_s16le ([1][0][0][0] / 0x0001), 22050 Hz, mono, s16, 352 kb/s (default)\n",
      "    Metadata:\n",
      "      encoder         : Lavc58.54.100 pcm_s16le\n",
      "size=     106kB time=00:00:02.45 bitrate= 353.1kbits/s speed= 247x    \n",
      "video:0kB audio:106kB subtitle:0kB other streams:0kB global headers:0kB muxing overhead: 0.071899%\n"
     ]
    },
    {
     "name": "stderr",
     "output_type": "stream",
     "text": [
      "ffmpeg version 4.2 Copyright (c) 2000-2019 the FFmpeg developers\n",
      "  built with gcc 9.1.1 (GCC) 20190807\n",
      "  configuration: --enable-gpl --enable-version3 --enable-sdl2 --enable-fontconfig --enable-gnutls --enable-iconv --enable-libass --enable-libdav1d --enable-libbluray --enable-libfreetype --enable-libmp3lame --enable-libopencore-amrnb --enable-libopencore-amrwb --enable-libopenjpeg --enable-libopus --enable-libshine --enable-libsnappy --enable-libsoxr --enable-libtheora --enable-libtwolame --enable-libvpx --enable-libwavpack --enable-libwebp --enable-libx264 --enable-libx265 --enable-libxml2 --enable-libzimg --enable-lzma --enable-zlib --enable-gmp --enable-libvidstab --enable-libvorbis --enable-libvo-amrwbenc --enable-libmysofa --enable-libspeex --enable-libxvid --enable-libaom --enable-libmfx --enable-amf --enable-ffnvcodec --enable-cuvid --enable-d3d11va --enable-nvenc --enable-nvdec --enable-dxva2 --enable-avisynth --enable-libopenmpt\n",
      "  libavutil      56. 31.100 / 56. 31.100\n",
      "  libavcodec     58. 54.100 / 58. 54.100\n",
      "  libavformat    58. 29.100 / 58. 29.100\n",
      "  libavdevice    58.  8.100 / 58.  8.100\n",
      "  libavfilter     7. 57.100 /  7. 57.100\n",
      "  libswscale      5.  5.100 /  5.  5.100\n",
      "  libswresample   3.  5.100 /  3.  5.100\n",
      "  libpostproc    55.  5.100 / 55.  5.100\n",
      "Input #0, matroska,webm, from 'tem\\eb702740d41f4f389192ec5c6a3ae95f_15716a47bc204f049213123b792c57fe.wav':\n",
      "  Metadata:\n",
      "    encoder         : Chrome\n",
      "  Duration: N/A, start: 0.000000, bitrate: N/A\n",
      "    Stream #0:0(eng): Audio: opus, 48000 Hz, mono, fltp (default)\n",
      "Stream mapping:\n",
      "  Stream #0:0 -> #0:0 (opus (native) -> pcm_s16le (native))\n",
      "Press [q] to stop, [?] for help\n",
      "Output #0, wav, to 'tem2/eb702740d41f4f389192ec5c6a3ae95f_15716a47bc204f049213123b792c57fe.wav.wav':\n",
      "  Metadata:\n",
      "    ISFT            : Lavf58.29.100\n",
      "    Stream #0:0(eng): Audio: pcm_s16le ([1][0][0][0] / 0x0001), 22050 Hz, mono, s16, 352 kb/s (default)\n",
      "    Metadata:\n",
      "      encoder         : Lavc58.54.100 pcm_s16le\n",
      "size=     106kB time=00:00:02.45 bitrate= 353.1kbits/s speed= 145x    \n",
      "video:0kB audio:106kB subtitle:0kB other streams:0kB global headers:0kB muxing overhead: 0.071899%\n",
      "ffmpeg version 4.2 Copyright (c) 2000-2019 the FFmpeg developers\n",
      "  built with gcc 9.1.1 (GCC) 20190807\n",
      "  configuration: --enable-gpl --enable-version3 --enable-sdl2 --enable-fontconfig --enable-gnutls --enable-iconv --enable-libass --enable-libdav1d --enable-libbluray --enable-libfreetype --enable-libmp3lame --enable-libopencore-amrnb --enable-libopencore-amrwb --enable-libopenjpeg --enable-libopus --enable-libshine --enable-libsnappy --enable-libsoxr --enable-libtheora --enable-libtwolame --enable-libvpx --enable-libwavpack --enable-libwebp --enable-libx264 --enable-libx265 --enable-libxml2 --enable-libzimg --enable-lzma --enable-zlib --enable-gmp --enable-libvidstab --enable-libvorbis --enable-libvo-amrwbenc --enable-libmysofa --enable-libspeex --enable-libxvid --enable-libaom --enable-libmfx --enable-amf --enable-ffnvcodec --enable-cuvid --enable-d3d11va --enable-nvenc --enable-nvdec --enable-dxva2 --enable-avisynth --enable-libopenmpt\n",
      "  libavutil      56. 31.100 / 56. 31.100\n",
      "  libavcodec     58. 54.100 / 58. 54.100\n",
      "  libavformat    58. 29.100 / 58. 29.100\n",
      "  libavdevice    58.  8.100 / 58.  8.100\n",
      "  libavfilter     7. 57.100 /  7. 57.100\n",
      "  libswscale      5.  5.100 /  5.  5.100\n",
      "  libswresample   3.  5.100 /  3.  5.100\n",
      "  libpostproc    55.  5.100 / 55.  5.100\n",
      "Input #0, matroska,webm, from 'tem\\eb702740d41f4f389192ec5c6a3ae95f_87a2ba7712f9401191ca9327b00a775d.wav':\n",
      "  Metadata:\n",
      "    encoder         : Chrome\n",
      "  Duration: N/A, start: 0.000000, bitrate: N/A\n",
      "    Stream #0:0(eng): Audio: opus, 48000 Hz, mono, fltp (default)\n",
      "Stream mapping:\n",
      "  Stream #0:0 -> #0:0 (opus (native) -> pcm_s16le (native))\n",
      "Press [q] to stop, [?] for help\n",
      "Output #0, wav, to 'tem2/eb702740d41f4f389192ec5c6a3ae95f_87a2ba7712f9401191ca9327b00a775d.wav.wav':\n",
      "  Metadata:\n",
      "    ISFT            : Lavf58.29.100\n",
      "    Stream #0:0(eng): Audio: pcm_s16le ([1][0][0][0] / 0x0001), 22050 Hz, mono, s16, 352 kb/s (default)\n",
      "    Metadata:\n",
      "      encoder         : Lavc58.54.100 pcm_s16le\n",
      "size=     106kB time=00:00:02.45 bitrate= 353.1kbits/s speed= 308x    \n",
      "video:0kB audio:106kB subtitle:0kB other streams:0kB global headers:0kB muxing overhead: 0.071899%\n",
      "ffmpeg version 4.2 Copyright (c) 2000-2019 the FFmpeg developers\n",
      "  built with gcc 9.1.1 (GCC) 20190807\n",
      "  configuration: --enable-gpl --enable-version3 --enable-sdl2 --enable-fontconfig --enable-gnutls --enable-iconv --enable-libass --enable-libdav1d --enable-libbluray --enable-libfreetype --enable-libmp3lame --enable-libopencore-amrnb --enable-libopencore-amrwb --enable-libopenjpeg --enable-libopus --enable-libshine --enable-libsnappy --enable-libsoxr --enable-libtheora --enable-libtwolame --enable-libvpx --enable-libwavpack --enable-libwebp --enable-libx264 --enable-libx265 --enable-libxml2 --enable-libzimg --enable-lzma --enable-zlib --enable-gmp --enable-libvidstab --enable-libvorbis --enable-libvo-amrwbenc --enable-libmysofa --enable-libspeex --enable-libxvid --enable-libaom --enable-libmfx --enable-amf --enable-ffnvcodec --enable-cuvid --enable-d3d11va --enable-nvenc --enable-nvdec --enable-dxva2 --enable-avisynth --enable-libopenmpt\n",
      "  libavutil      56. 31.100 / 56. 31.100\n",
      "  libavcodec     58. 54.100 / 58. 54.100\n",
      "  libavformat    58. 29.100 / 58. 29.100\n",
      "  libavdevice    58.  8.100 / 58.  8.100\n",
      "  libavfilter     7. 57.100 /  7. 57.100\n",
      "  libswscale      5.  5.100 /  5.  5.100\n",
      "  libswresample   3.  5.100 /  3.  5.100\n",
      "  libpostproc    55.  5.100 / 55.  5.100\n",
      "Input #0, matroska,webm, from 'tem\\eb702740d41f4f389192ec5c6a3ae95f_e0b303d2528341178fe92c1dd69e1b1d.wav':\n",
      "  Metadata:\n",
      "    encoder         : Chrome\n",
      "  Duration: N/A, start: 0.000000, bitrate: N/A\n",
      "    Stream #0:0(eng): Audio: opus, 48000 Hz, mono, fltp (default)\n",
      "Stream mapping:\n",
      "  Stream #0:0 -> #0:0 (opus (native) -> pcm_s16le (native))\n",
      "Press [q] to stop, [?] for help\n",
      "Output #0, wav, to 'tem2/eb702740d41f4f389192ec5c6a3ae95f_e0b303d2528341178fe92c1dd69e1b1d.wav.wav':\n",
      "  Metadata:\n",
      "    ISFT            : Lavf58.29.100\n",
      "    Stream #0:0(eng): Audio: pcm_s16le ([1][0][0][0] / 0x0001), 22050 Hz, mono, s16, 352 kb/s (default)\n",
      "    Metadata:\n",
      "      encoder         : Lavc58.54.100 pcm_s16le\n",
      "size=     106kB time=00:00:02.45 bitrate= 353.1kbits/s speed= 274x    \n",
      "video:0kB audio:106kB subtitle:0kB other streams:0kB global headers:0kB muxing overhead: 0.071899%\n"
     ]
    }
   ],
   "source": [
    "for file in os.listdir(\"tem\"):\n",
    "    file_path = os.path.join(\"tem\", file)\n",
    "    dest_path = f\"tem2/{file}.wav\"\n",
    "    !ffmpeg -i $file_path -ac 1 -ar 22050 $dest_path"
   ]
  },
  {
   "cell_type": "markdown",
   "metadata": {},
   "source": [
    "# 2nd data"
   ]
  },
  {
   "cell_type": "code",
   "execution_count": 82,
   "metadata": {},
   "outputs": [],
   "source": [
    "# Create new dirs for converted audios\n",
    "os.mkdir(\"AdditionalUtterancesConverted_2/\")\n",
    "os.mkdir(\"AdditionalUtterancesConverted_2/nlp_keywords/\")"
   ]
  },
  {
   "cell_type": "code",
   "execution_count": 83,
   "metadata": {},
   "outputs": [],
   "source": [
    "# Audio input to be converted path\n",
    "base_path = \"nlp_keywords_29Oct2020/nlp_keywords/\"\n",
    "additional_labels = os.listdir(base_path)"
   ]
  },
  {
   "cell_type": "code",
   "execution_count": 84,
   "metadata": {},
   "outputs": [],
   "source": [
    "for label in additional_labels:\n",
    "    os.mkdir(f\"AdditionalUtterancesConverted_2/nlp_keywords/{label}\")"
   ]
  },
  {
   "cell_type": "markdown",
   "metadata": {},
   "source": [
    "### Deal with os.rmdir or os.remove below"
   ]
  },
  {
   "cell_type": "code",
   "execution_count": 85,
   "metadata": {},
   "outputs": [],
   "source": [
    "# In new add. data\n",
    "irrelevant = \"AdditionalUtterancesConverted_2/nlp_keywords/.DS_Store/\"\n",
    "if os.path.exists(irrelevant):\n",
    "    os.rmdir(irrelevant)\n",
    "    #os.remove()\n",
    "    additional_labels.remove(\".DS_Store\")"
   ]
  },
  {
   "cell_type": "code",
   "execution_count": 86,
   "metadata": {},
   "outputs": [
    {
     "name": "stdout",
     "output_type": "stream",
     "text": [
      "Wall time: 3min 17s\n"
     ]
    }
   ],
   "source": [
    "%%time\n",
    "for label in additional_labels:\n",
    "# for label in [\"enva endiirwa\", \"nnasale beedi\"]:   \n",
    "    samples_in_label = os.listdir(os.path.join(base_path, label))\n",
    "    \n",
    "    for sample in samples_in_label:\n",
    "        file_path = os.path.join(base_path, label + \"/\" + sample)\n",
    "        dest_path = os.path.join(\"AdditionalUtterancesConverted_2/nlp_keywords/\", label + \"/\" + sample)\n",
    "#         dest_path = \"./saas.wav\"\n",
    "        \n",
    "#         print(dest_path)\n",
    "#         break\n",
    "#         Convert\n",
    "        !ffmpeg -i \"$file_path\" -ac 1 -ar 22050 \"$dest_path\" -loglevel quiet\n",
    "#         break\n",
    "#     break"
   ]
  },
  {
   "cell_type": "code",
   "execution_count": 81,
   "metadata": {},
   "outputs": [
    {
     "name": "stderr",
     "output_type": "stream",
     "text": [
      "ffmpeg version 4.2 Copyright (c) 2000-2019 the FFmpeg developers\n",
      "  built with gcc 9.1.1 (GCC) 20190807\n",
      "  configuration: --enable-gpl --enable-version3 --enable-sdl2 --enable-fontconfig --enable-gnutls --enable-iconv --enable-libass --enable-libdav1d --enable-libbluray --enable-libfreetype --enable-libmp3lame --enable-libopencore-amrnb --enable-libopencore-amrwb --enable-libopenjpeg --enable-libopus --enable-libshine --enable-libsnappy --enable-libsoxr --enable-libtheora --enable-libtwolame --enable-libvpx --enable-libwavpack --enable-libwebp --enable-libx264 --enable-libx265 --enable-libxml2 --enable-libzimg --enable-lzma --enable-zlib --enable-gmp --enable-libvidstab --enable-libvorbis --enable-libvo-amrwbenc --enable-libmysofa --enable-libspeex --enable-libxvid --enable-libaom --enable-libmfx --enable-amf --enable-ffnvcodec --enable-cuvid --enable-d3d11va --enable-nvenc --enable-nvdec --enable-dxva2 --enable-avisynth --enable-libopenmpt\n",
      "  libavutil      56. 31.100 / 56. 31.100\n",
      "  libavcodec     58. 54.100 / 58. 54.100\n",
      "  libavformat    58. 29.100 / 58. 29.100\n",
      "  libavdevice    58.  8.100 / 58.  8.100\n",
      "  libavfilter     7. 57.100 /  7. 57.100\n",
      "  libswscale      5.  5.100 /  5.  5.100\n",
      "  libswresample   3.  5.100 /  3.  5.100\n",
      "  libpostproc    55.  5.100 / 55.  5.100\n",
      "Input #0, matroska,webm, from 'te m/0a8fccdb95b749dca0404bf433872764_9d9acf15fc7a417d9e828fd6398a96dc.wav':\n",
      "  Metadata:\n",
      "    encoder         : Chrome\n",
      "  Duration: N/A, start: 0.000000, bitrate: N/A\n",
      "    Stream #0:0(eng): Audio: opus, 48000 Hz, mono, fltp (default)\n",
      "Stream mapping:\n",
      "  Stream #0:0 -> #0:0 (opus (native) -> pcm_s16le (native))\n",
      "Press [q] to stop, [?] for help\n",
      "Output #0, wav, to 'te m2/conv.wav':\n",
      "  Metadata:\n",
      "    ISFT            : Lavf58.29.100\n",
      "    Stream #0:0(eng): Audio: pcm_s16le ([1][0][0][0] / 0x0001), 22050 Hz, mono, s16, 352 kb/s (default)\n",
      "    Metadata:\n",
      "      encoder         : Lavc58.54.100 pcm_s16le\n",
      "size=     109kB time=00:00:02.51 bitrate= 354.2kbits/s speed=98.4x    \n",
      "video:0kB audio:109kB subtitle:0kB other streams:0kB global headers:0kB muxing overhead: 0.070187%\n"
     ]
    }
   ],
   "source": [
    "f1 = \"te m/0a8fccdb95b749dca0404bf433872764_9d9acf15fc7a417d9e828fd6398a96dc.wav\"\n",
    "f2 = \"te m2/conv.wav\"\n",
    "!ffmpeg -i \"$f1\" -ac 1 -ar 22050 \"$f2\""
   ]
  },
  {
   "cell_type": "code",
   "execution_count": null,
   "metadata": {},
   "outputs": [],
   "source": [
    "1861, 1833 10"
   ]
  },
  {
   "cell_type": "code",
   "execution_count": 55,
   "metadata": {},
   "outputs": [
    {
     "data": {
      "text/plain": [
       "1860"
      ]
     },
     "execution_count": 55,
     "metadata": {},
     "output_type": "execute_result"
    }
   ],
   "source": [
    "1833+10+17"
   ]
  }
 ],
 "metadata": {
  "kernelspec": {
   "display_name": "Python 3",
   "language": "python",
   "name": "python3"
  },
  "language_info": {
   "codemirror_mode": {
    "name": "ipython",
    "version": 3
   },
   "file_extension": ".py",
   "mimetype": "text/x-python",
   "name": "python",
   "nbconvert_exporter": "python",
   "pygments_lexer": "ipython3",
   "version": "3.7.7"
  }
 },
 "nbformat": 4,
 "nbformat_minor": 4
}
